<svg width="48" height="48" viewBox="0 0 48 48" fill="none" xmlns="http://www.w3.org/2000/svg">
<path fill-rule="evenodd" clip-rule="evenodd" d="M23.5 4C23.5 3.72386 23.7238 3.5 24 3.5H44C44.1326 3.5 44.2598 3.55268 44.3536 3.64645C44.4473 3.74021 44.5 3.86739 44.5 4L44.5 24C44.5 24.2762 44.2761 24.5 44 24.5C43.7239 24.5 43.5 24.2762 43.5 24L43.5 5.20711L4.35355 44.3536C4.15829 44.5488 3.84171 44.5488 3.64645 44.3536C3.45118 44.1583 3.45118 43.8417 3.64645 43.6464L42.7929 4.5H24C23.7238 4.5 23.5 4.27614 23.5 4Z" fill="#2E3A59"/>
</svg>
